# xmcd CD database file
#
# Track frame offsets:
#	150
#	32604
#	74477
#	95402
#	114220
#	146051
#	169584
#	195442
#	216005
#	230970
#
# Disc length: 3277 seconds
#
# Revision: 0
# Processed by: cddbd v1.5.2PL0 Copyright (c) Steve Scherf et al.
# Submitted via: CDex 1.51
#
DISCID=8a0ccb0a
DTITLE=Various Artist - Best Of Blue Note 50 - CD5
DYEAR=2011
DGENRE=Jazz
TTITLE0=Horace Silver_Psychedelic Sally
TTITLE1=Donald Byrd_Elijah
TTITLE2=Jeremy Steig_Howling For Judy
TTITLE3=Eddie Henderson_Nostalgia
TTITLE4=Cassandra Wilson_Easy Rider
TTITLE5=Patricia Barber_I Wait For Late Afternoon And You
TTITLE6=Dianne Reeves_Afro Blue (Live)
TTITLE7=Jason Moran_Blue Blocks
TTITLE8=Stacey Kent_Ces Petits Riens
TTITLE9=Norah Jones_Come Away With Me
EXTD=YEAR: 2011
EXTT0=
EXTT1=
EXTT2=
EXTT3=
EXTT4=
EXTT5=
EXTT6=
EXTT7=
EXTT8=
EXTT9=
PLAYORDER=
